# xmcd
#
# Track frame offsets:
#	150
#	19715
#	41787
#	59935
#	76222
#	93005
#	108775
#	123812
#	138787
#	158405
#	180432
#	198590
#	214860
#	231645
#	247340
#	262330
#	288727
#
# Disc length: 3862 seconds
#
# Revision: 1
# Processed by: cddbd v1.5.2PL0 Copyright (c) Steve Scherf et al.
# Submitted via: audiograbber 1.83.01
#
DISCID=f80f1411
DTITLE=Various Artist - SC2121
DYEAR=1900
DGENRE=KARAOKE
TTITLE0=TANYA TUCKER - TWO SPARROWS IN A HURRICANE
TTITLE1=JUDDS - LOVE CAN BUILD A BRIDGE
TTITLE2=DOLLY PARTON - SILVER AND GOLD
TTITLE3=JESSI COLTER - I'M NOT LISA
TTITLE4=HOLLY DUNN - DADDY'S HANDS
TTITLE5=JUDDS - MAMA HE'S CRAZY
TTITLE6=CRYSTAL GAYLE - TALKING IN YOUR SLEEP
TTITLE7=ROSEANNE CASH - TENNESSEE FLAT TOP BOX
TTITLE8=TANYA TUCKER - TWO SPARROWS IN A HURRICANE (WVOCAL)
TTITLE9=JUDDS - LOVE CAN BUILD A BRIDGE (WVOCAL)
TTITLE10=DOLLY PARTON - SILVER AND GOLD (WVOCAL
TTITLE11=JESSI COLTER - I'M NOT LISA (WVOCAL)
TTITLE12=HOLLY DUNN - DADDY'S HANDS (WVOCAL)
TTITLE13=JUDDS - MAMA HE'S CRAZY (WVOCAL)
TTITLE14=CRYSTAL GAYLE - TALKING IN YOUR SLEEP (WVOCAL)
TTITLE15=ROSEANNE CASH - TENNESSEE FLAT TOP BOX (WVOCAL)
TTITLE16=DATA - Data Track
EXTD=
EXTT0=
EXTT1=
EXTT2=
EXTT3=
EXTT4=
EXTT5=
EXTT6=
EXTT7=
EXTT8=
EXTT9=
EXTT10=
EXTT11=
EXTT12=
EXTT13=
EXTT14=
EXTT15=
EXTT16=
PLAYORDER=
